<?xml version="1.0" standalone="no"?><!DOCTYPE svg PUBLIC "-//W3C//DTD SVG 1.1//EN" "http://www.w3.org/Graphics/SVG/1.1/DTD/svg11.dtd"><svg t="1700467484855" class="icon" viewBox="0 0 1114 1024" version="1.1" xmlns="http://www.w3.org/2000/svg" p-id="6457" xmlns:xlink="http://www.w3.org/1999/xlink" width="217.578125" height="200"><path d="M509.960159 509.960159m-509.960159 0a509.960159 509.960159 0 1 0 1019.920319 0 509.960159 509.960159 0 1 0-1019.920319 0Z" fill="#F3FAFE" p-id="6458"></path><path d="M1044.398406 546.677291c-97.912351 16.318725-215.978327 42.102311-261.099601 57.115538-36.717131 12.239044-53.035857 36.717131-8.159363 89.752988 41.123187 48.629801 16.318725 138.709163 16.318725 138.709163s-0.163187-0.244781-0.582811-0.734343c0.081594-0.081594 0.081594-0.081594 0-0.163187-2.914058-4.977211-19.174502-32.555857-76.931133-133.731952-24.559681-43.081434-27.170677-73.352669-20.887968-94.415481a12.670324 12.670324 0 0 1 0.652749-1.876653c11.073421-33.290199 44.713307-42.428685 44.713307-42.428686l252.940239-122.390438s-96.443665-142.707251-159.352351-231.889083c0 0-10.525578 40.633625-26.10996 81.675219-111.783267-18.276972-172.896892-140.912191-180.811474-157.883666A972.042345 972.042345 0 0 1 672.168287 0H856.733068s89.752988 277.418327 244.780876 456.924303c0 0 40.796813 73.434263-57.115538 89.752988z" fill="#FFD5C7" p-id="6459"></path><path d="M437.994582 0c-20.981218 25.701992-59.318566 70.904861-79.88016 112.925578-13.404667 7.751394-50.996016 31.168765-76.779601 62.255936L277.418327 0z" fill="#FFD5C7" p-id="6460"></path><path d="M672.168287 0c-12.483825 28.394582-47.977052 126.47012-47.977052 126.47012s-146.868526 81.593625-163.187251 89.752988a39.666158 39.666158 0 0 1-24.559681 5.793147A53.035857 53.035857 0 0 1 420.207171 216.223108c-16.318725-8.159363-57.115538-106.071713-57.115538-106.071714s-1.79506 0.979124-4.977211 2.774184C378.676016 70.904861 417.036676 25.701992 438.017894 0z" fill="#FFD5C7" p-id="6461"></path><path d="M713.944223 697.625498c-104.847809 262.078725-372.719681 266.344906-516.406056 160.739442A238.742948 238.742948 0 0 1 118.310757 762.900398c-81.593625-187.665339 89.752988-350.85259 89.752988-350.852589s1.165623-1.165623 3.100558-3.182152C272.522709 403.235697 422.65498 397.360956 518.119522 461.003984a1128.637997 1128.637997 0 0 1 174.936733 142.206033c-6.282709 21.062812-3.671713 51.334047 20.887968 94.415481z" fill="#FFD5C7" p-id="6462"></path><path d="M795.537849 1024H191.74502l5.793147-165.63506c143.686375 105.605464 411.558247 101.339283 516.406056-160.739442 57.768287 101.176096 74.017075 128.754741 76.931133 133.731952 0.081594 0.081594 0.081594 0.081594 0 0.163187 9.639704 77.350757 4.662493 192.479363 4.662493 192.479363z" fill="#616A6C" p-id="6463"></path><path d="M771.059761 354.932271c-32.63745 40.796813-81.267251 85.183745-77.350757 246.412749a12.664496 12.664496 0 0 0-0.652749 1.876653 1128.5972 1128.5972 0 0 0-174.936733-142.206033c-95.464542-63.643028-245.596813-57.768287-306.955219-52.138326 12.973386-13.299761 62.174343-65.2749 62.174342-86.570837 0-24.478088-16.318725-73.434263-16.318725-73.434263-5.874741-26.517928 6.282709-51.975139 24.314901-73.679044 25.783586-31.087171 63.398247-54.504542 76.779601-62.255936 3.182151-1.79506 4.977211-2.774183 4.977211-2.774183s40.796813 97.912351 57.115538 106.071713a53.035857 53.035857 0 0 0 16.237132 5.793147 39.66033 39.66033 0 0 0 24.559681-5.793147c16.318725-8.159363 163.187251-89.752988 163.187251-89.752988s0.326375 0.652749 0.89753 1.958247c7.914582 16.971474 69.028207 139.606693 180.811474 157.883665-9.954422 26.261491-22.111873 52.697826-34.840478 68.608583z" fill="#F3757E" p-id="6464"></path></svg>